# xmcd
#
# Track frame offsets: 
#        150
#        20490
#        35372
#        57940
#        77295
#        98754
#        124462
#        143025
#        164390
#        185207
#        205315
#        225597
#
# Disc length: 3327 seconds
#
# Revision: 0
# Processed by: cddbd v1.5.2PL0 Copyright (c) Steve Scherf et al.
# Submitted via: ExactAudioCopyFreeDBPlugin 1.0
#
DISCID=9e0cfd0c
DTITLE=Various Artist - Body and Soul - Sweet Seduction [CD2]
DYEAR=1999
DGENRE=R&B
TTITLE0=Barry White - Can't Get Enough Of Your Love, Babe
TTITLE1=Regina Belle - Baby Come To Me
TTITLE2=Marvin Gaye - Let's Get It On
TTITLE3=Ray, Goodman and Brown - Special Lady
TTITLE4=Brothers Johnson - I'll Be Good To You
TTITLE5=Kool and The Gang - Cherish
TTITLE6=Smokey Robinson - Being With You
TTITLE7=Freddie Jackson - You Are My Lady
TTITLE8=L.T.D. - Love Ballad
TTITLE9=The O'Jays - Stairway To Heaven
TTITLE10=Teddy Pendergrass - Turn Off The Lights
TTITLE11=Brenda Russell - Piano In The Dark
EXTD=
EXTT0=
EXTT1=
EXTT2=
EXTT3=
EXTT4=
EXTT5=
EXTT6=
EXTT7=
EXTT8=
EXTT9=
EXTT10=
EXTT11=
PLAYORDER=
